<svg xmlns="http://www.w3.org/2000/svg" viewBox="0 0 400 100">
  <rect width="400" height="100" rx="8" fill="#1a1b26"/>

  <!-- P -->
  <rect x="30" y="20" width="4" height="60" rx="1" fill="#7aa2f7"/>
  <rect x="30" y="20" width="30" height="4" rx="1" fill="#7aa2f7"/>
  <rect x="56" y="20" width="4" height="30" rx="1" fill="#7aa2f7"/>
  <rect x="30" y="46" width="30" height="4" rx="1" fill="#7aa2f7"/>

  <!-- I -->
  <rect x="76" y="20" width="4" height="60" rx="1" fill="#7aa2f7"/>

  <!-- dash -->
  <rect x="100" y="46" width="16" height="4" rx="1" fill="#545c7e"/>

  <!-- S -->
  <rect x="136" y="20" width="30" height="4" rx="1" fill="#7aa2f7"/>
  <rect x="136" y="20" width="4" height="30" rx="1" fill="#7aa2f7"/>
  <rect x="136" y="46" width="30" height="4" rx="1" fill="#7aa2f7"/>
  <rect x="162" y="46" width="4" height="30" rx="1" fill="#7aa2f7"/>
  <rect x="136" y="76" width="30" height="4" rx="1" fill="#7aa2f7"/>

  <!-- A -->
  <rect x="186" y="20" width="4" height="60" rx="1" fill="#7aa2f7"/>
  <rect x="186" y="20" width="30" height="4" rx="1" fill="#7aa2f7"/>
  <rect x="212" y="20" width="4" height="60" rx="1" fill="#7aa2f7"/>
  <rect x="186" y="46" width="30" height="4" rx="1" fill="#7aa2f7"/>

  <!-- M -->
  <rect x="236" y="20" width="4" height="60" rx="1" fill="#7aa2f7"/>
  <rect x="256" y="20" width="4" height="60" rx="1" fill="#7aa2f7"/>
  <rect x="276" y="20" width="4" height="60" rx="1" fill="#7aa2f7"/>
  <rect x="236" y="20" width="44" height="4" rx="1" fill="#7aa2f7"/>
  <rect x="254" y="20" width="8" height="32" rx="1" fill="#7aa2f7" opacity="0.5"/>
</svg>
